<mxfile host="app.diagrams.net" agent="Mozilla/5.0 (Macintosh; Intel Mac OS X 10_15_7) AppleWebKit/537.36 (KHTML, like Gecko) Chrome/138.0.0.0 Safari/537.36" version="28.0.7">
  <diagram name="Page-1" id="RNlF7roiQB2CZt2FowXg">
    <mxGraphModel dx="1426" dy="824" grid="1" gridSize="10" guides="1" tooltips="1" connect="1" arrows="1" fold="1" page="1" pageScale="1" pageWidth="850" pageHeight="1100" math="0" shadow="0">
      <root>
        <mxCell id="0" />
        <mxCell id="1" parent="0" />
        <mxCell id="-Tq39r_zWdVaFR7GULdp-2" value="Ozzy&#39;s brick oven pizzas made just for you&lt;div&gt;always with the freshest ingredients&amp;nbsp;&lt;/div&gt;&lt;div&gt;made specifically to order every time&lt;/div&gt;" style="whiteSpace=wrap;html=1;aspect=fixed;" parent="1" vertex="1">
          <mxGeometry x="270" y="310" width="310" height="310" as="geometry" />
        </mxCell>
        <mxCell id="kFUpDbF8RHPr3pWpYG2b-1" value="" style="verticalLabelPosition=bottom;verticalAlign=top;html=1;shape=mxgraph.basic.plaque_frame;dx=10;whiteSpace=wrap;" vertex="1" parent="1">
          <mxGeometry x="270" y="160" width="310" height="60" as="geometry" />
        </mxCell>
        <mxCell id="kFUpDbF8RHPr3pWpYG2b-2" value="&lt;font style=&quot;font-size: 33px;&quot;&gt;Ozzy&#39;s&amp;nbsp; Pizza&lt;/font&gt;" style="text;html=1;align=center;verticalAlign=middle;resizable=0;points=[];autosize=1;strokeColor=none;fillColor=none;" vertex="1" parent="1">
          <mxGeometry x="315" y="165" width="220" height="50" as="geometry" />
        </mxCell>
        <mxCell id="kFUpDbF8RHPr3pWpYG2b-3" style="edgeStyle=orthogonalEdgeStyle;rounded=0;orthogonalLoop=1;jettySize=auto;html=1;exitX=0.5;exitY=1;exitDx=0;exitDy=0;" edge="1" parent="1" source="-Tq39r_zWdVaFR7GULdp-2" target="-Tq39r_zWdVaFR7GULdp-2">
          <mxGeometry relative="1" as="geometry" />
        </mxCell>
        <mxCell id="kFUpDbF8RHPr3pWpYG2b-4" value="&lt;span style=&quot;color: rgb(51, 51, 51); font-family: Arial, sans-serif; font-size: 11px; background-color: rgb(255, 255, 255);&quot;&gt;Â© 2025 Ozzy&#39;s pizza&lt;/span&gt;" style="rounded=1;whiteSpace=wrap;html=1;" vertex="1" parent="1">
          <mxGeometry x="360" y="700" width="120" height="60" as="geometry" />
        </mxCell>
        <mxCell id="kFUpDbF8RHPr3pWpYG2b-5" value="home/menu/contact/cart" style="rounded=0;whiteSpace=wrap;html=1;" vertex="1" parent="1">
          <mxGeometry x="250" y="20" width="490" height="60" as="geometry" />
        </mxCell>
        <mxCell id="kFUpDbF8RHPr3pWpYG2b-6" value="logo" style="ellipse;whiteSpace=wrap;html=1;aspect=fixed;" vertex="1" parent="1">
          <mxGeometry x="40" y="40" width="80" height="80" as="geometry" />
        </mxCell>
      </root>
    </mxGraphModel>
  </diagram>
</mxfile>
